HIERARCHY
ROOT Hips
{
	OFFSET 0.000000 100.481300 0.000000
	CHANNELS 6 Xposition Yposition Zposition Xrotation Yrotation Zrotation
	JOINT Spine
	{
		OFFSET -0.279200 12.230698 -2.892100
		CHANNELS 3 Xrotation Yrotation Zrotation
		JOINT Spine1
		{
			OFFSET -0.325700 14.269203 -3.374200
			CHANNELS 3 Xrotation Yrotation Zrotation
			JOINT Spine2
			{
				OFFSET -0.372300 16.307602 -0.352600
				CHANNELS 3 Xrotation Yrotation Zrotation
				JOINT Neck
				{
					OFFSET -0.418800 17.814194 8.416900
					CHANNELS 3 Xrotation Yrotation Zrotation
					JOINT Head
					{
						OFFSET 0.000000 7.031097 3.806800
						CHANNELS 3 Xrotation Yrotation Zrotation
						JOINT HeadTop_End
						{
							OFFSET 0.000000 24.646606 12.978600
							CHANNELS 3 Xrotation Yrotation Zrotation
							End Site
							{
								OFFSET 0.000000 27.854965 0.000000
							}
						}
					}
				}
				JOINT LeftShoulder
				{
					OFFSET 16.952999 14.495407 -7.737500
					CHANNELS 3 Xrotation Yrotation Zrotation
					JOINT LeftArm
					{
						OFFSET 9.308998 -2.777710 0.208600
						CHANNELS 3 Xrotation Yrotation Zrotation
						JOINT LeftForeArm
						{
							OFFSET 29.972298 0.000000 0.000000
							CHANNELS 3 Xrotation Yrotation Zrotation
							JOINT LeftHand
							{
								OFFSET 26.026505 0.000000 0.000000
								CHANNELS 3 Xrotation Yrotation Zrotation
								JOINT LeftHandThumb1
								{
									OFFSET 12.240501 -7.147949 9.207150
									CHANNELS 3 Xrotation Yrotation Zrotation
									JOINT LeftHandThumb2
									{
										OFFSET 4.138618 -2.389435 2.389433
										CHANNELS 3 Xrotation Yrotation Zrotation
										JOINT LeftHandThumb3
										{
											OFFSET 2.726913 -1.574387 1.574386
											CHANNELS 3 Xrotation Yrotation Zrotation
											JOINT LeftHandThumb4
											{
												OFFSET 3.941010 -2.275345 2.275342
												CHANNELS 3 Xrotation Yrotation Zrotation
												End Site
												{
													OFFSET -0.005798 5.087799 0.009903
												}
											}
										}
									}
								}
								JOINT LeftHandIndex1
								{
									OFFSET 24.424698 -1.985611 5.953459
									CHANNELS 3 Xrotation Yrotation Zrotation
									JOINT LeftHandIndex2
									{
										OFFSET 6.426697 0.000000 0.000000
										CHANNELS 3 Xrotation Yrotation Zrotation
										JOINT LeftHandIndex3
										{
											OFFSET 5.337898 0.000000 0.000000
											CHANNELS 3 Xrotation Yrotation Zrotation
											JOINT LeftHandIndex4
											{
												OFFSET 4.409401 0.000000 0.000000
												CHANNELS 3 Xrotation Yrotation Zrotation
												End Site
												{
													OFFSET 0.000000 4.409363 0.014373
												}
											}
										}
									}
								}
								JOINT LeftHandMiddle1
								{
									OFFSET 23.810104 0.000000 0.000000
									CHANNELS 3 Xrotation Yrotation Zrotation
									JOINT LeftHandMiddle2
									{
										OFFSET 7.176498 0.000000 0.000000
										CHANNELS 3 Xrotation Yrotation Zrotation
										JOINT LeftHandMiddle3
										{
											OFFSET 6.774902 0.000000 0.000000
											CHANNELS 3 Xrotation Yrotation Zrotation
											JOINT LeftHandMiddle4
											{
												OFFSET 5.403328 0.000000 0.000000
												CHANNELS 3 Xrotation Yrotation Zrotation
												End Site
												{
													OFFSET -0.027702 5.403244 0.017414
												}
											}
										}
									}
								}
								JOINT LeftHandRing1
								{
									OFFSET 22.908401 -0.839279 -6.020567
									CHANNELS 3 Xrotation Yrotation Zrotation
									JOINT LeftHandRing2
									{
										OFFSET 6.337502 0.000000 0.000000
										CHANNELS 3 Xrotation Yrotation Zrotation
										JOINT LeftHandRing3
										{
											OFFSET 5.779297 0.000000 0.000000
											CHANNELS 3 Xrotation Yrotation Zrotation
											JOINT LeftHandRing4
											{
												OFFSET 4.965698 0.000000 0.000000
												CHANNELS 3 Xrotation Yrotation Zrotation
												End Site
												{
													OFFSET 0.000000 4.965668 0.016186
												}
											}
										}
									}
								}
								JOINT LeftHandPinky1
								{
									OFFSET 20.037003 -1.530319 -10.950146
									CHANNELS 3 Xrotation Yrotation Zrotation
									JOINT LeftHandPinky2
									{
										OFFSET 5.254700 0.000000 0.000000
										CHANNELS 3 Xrotation Yrotation Zrotation
										JOINT LeftHandPinky3
										{
											OFFSET 4.810204 0.000000 0.000000
											CHANNELS 3 Xrotation Yrotation Zrotation
											JOINT LeftHandPinky4
											{
												OFFSET 3.647202 0.000000 0.000000
												CHANNELS 3 Xrotation Yrotation Zrotation
												End Site
												{
													OFFSET 0.000000 3.647186 0.011889
												}
											}
										}
									}
								}
							}
						}
					}
				}
				JOINT RightShoulder
				{
					OFFSET -15.141001 14.495407 -7.737500
					CHANNELS 3 Xrotation Yrotation Zrotation
					JOINT RightArm
					{
						OFFSET -9.308998 -2.777710 0.208500
						CHANNELS 3 Xrotation Yrotation Zrotation
						JOINT RightForeArm
						{
							OFFSET -29.972300 0.000000 0.000000
							CHANNELS 3 Xrotation Yrotation Zrotation
							JOINT RightHand
							{
								OFFSET -26.026505 0.000000 0.000000
								CHANNELS 3 Xrotation Yrotation Zrotation
								JOINT RightHandThumb1
								{
									OFFSET -12.240601 -7.148026 9.207092
									CHANNELS 3 Xrotation Yrotation Zrotation
									JOINT RightHandThumb2
									{
										OFFSET -4.138618 -2.389435 2.389433
										CHANNELS 3 Xrotation Yrotation Zrotation
										JOINT RightHandThumb3
										{
											OFFSET -2.726974 -1.574417 1.574421
											CHANNELS 3 Xrotation Yrotation Zrotation
											JOINT RightHandThumb4
											{
												OFFSET -3.941010 -2.275345 2.275343
												CHANNELS 3 Xrotation Yrotation Zrotation
												End Site
												{
													OFFSET 0.005814 5.087799 0.009927
												}
											}
										}
									}
								}
								JOINT RightHandIndex1
								{
									OFFSET -24.424698 -1.985657 5.953444
									CHANNELS 3 Xrotation Yrotation Zrotation
									JOINT RightHandIndex2
									{
										OFFSET -6.426697 0.000000 0.000000
										CHANNELS 3 Xrotation Yrotation Zrotation
										JOINT RightHandIndex3
										{
											OFFSET -5.337898 0.000000 0.000000
											CHANNELS 3 Xrotation Yrotation Zrotation
											JOINT RightHandIndex4
											{
												OFFSET -4.409401 0.000000 0.000000
												CHANNELS 3 Xrotation Yrotation Zrotation
												End Site
												{
													OFFSET 0.000000 4.409363 0.014408
												}
											}
										}
									}
								}
								JOINT RightHandMiddle1
								{
									OFFSET -23.810097 0.000000 0.000000
									CHANNELS 3 Xrotation Yrotation Zrotation
									JOINT RightHandMiddle2
									{
										OFFSET -7.176498 0.000000 0.000000
										CHANNELS 3 Xrotation Yrotation Zrotation
										JOINT RightHandMiddle3
										{
											OFFSET -6.774902 0.000000 0.000000
											CHANNELS 3 Xrotation Yrotation Zrotation
											JOINT RightHandMiddle4
											{
												OFFSET -5.403328 0.000000 0.000000
												CHANNELS 3 Xrotation Yrotation Zrotation
												End Site
												{
													OFFSET 0.027702 5.403244 0.017457
												}
											}
										}
									}
								}
								JOINT RightHandRing1
								{
									OFFSET -22.908302 -0.839325 -6.020576
									CHANNELS 3 Xrotation Yrotation Zrotation
									JOINT RightHandRing2
									{
										OFFSET -6.337502 0.000000 0.000000
										CHANNELS 3 Xrotation Yrotation Zrotation
										JOINT RightHandRing3
										{
											OFFSET -5.779297 0.000000 0.000000
											CHANNELS 3 Xrotation Yrotation Zrotation
											JOINT RightHandRing4
											{
												OFFSET -4.965698 0.000000 0.000000
												CHANNELS 3 Xrotation Yrotation Zrotation
												End Site
												{
													OFFSET 0.000000 4.965668 0.016226
												}
											}
										}
									}
								}
								JOINT RightHandPinky1
								{
									OFFSET -20.037003 -1.530334 -10.950259
									CHANNELS 3 Xrotation Yrotation Zrotation
									JOINT RightHandPinky2
									{
										OFFSET -5.254700 0.000000 0.000000
										CHANNELS 3 Xrotation Yrotation Zrotation
										JOINT RightHandPinky3
										{
											OFFSET -4.810204 0.000000 0.000000
											CHANNELS 3 Xrotation Yrotation Zrotation
											JOINT RightHandPinky4
											{
												OFFSET -3.647202 0.000000 0.000000
												CHANNELS 3 Xrotation Yrotation Zrotation
												End Site
												{
													OFFSET 0.000000 3.647186 0.011917
												}
											}
										}
									}
								}
							}
						}
					}
				}
			}
		}
	}
	JOINT LeftUpLeg
	{
		OFFSET 15.427100 -6.655098 0.678600
		CHANNELS 3 Xrotation Yrotation Zrotation
		JOINT LeftLeg
		{
			OFFSET 4.081073 -39.591068 13.024000
			CHANNELS 3 Xrotation Yrotation Zrotation
			JOINT LeftFoot
			{
				OFFSET -4.081074 -37.707932 -15.979700
				CHANNELS 3 Xrotation Yrotation Zrotation
				JOINT LeftToeBase
				{
					OFFSET 5.346399 -15.068900 20.645000
					CHANNELS 3 Xrotation Yrotation Zrotation
					JOINT LeftToe_End
					{
						OFFSET 2.754700 0.931300 11.300900
						CHANNELS 3 Xrotation Yrotation Zrotation
						End Site
						{
							OFFSET 0.000000 11.669021 0.000000
						}
					}
				}
			}
		}
	}
	JOINT RightUpLeg
	{
		OFFSET -15.569500 -6.655098 0.678600
		CHANNELS 3 Xrotation Yrotation Zrotation
		JOINT RightLeg
		{
			OFFSET -4.081825 -39.591045 13.023800
			CHANNELS 3 Xrotation Yrotation Zrotation
			JOINT RightFoot
			{
				OFFSET 4.081824 -37.707954 -15.979600
				CHANNELS 3 Xrotation Yrotation Zrotation
				JOINT RightToeBase
				{
					OFFSET -5.346400 -15.068900 20.645000
					CHANNELS 3 Xrotation Yrotation Zrotation
					JOINT RightToe_End
					{
						OFFSET -2.754700 0.931300 11.300900
						CHANNELS 3 Xrotation Yrotation Zrotation
						End Site
						{
							OFFSET 0.000000 11.669021 0.000000
						}
					}
				}
			}
		}
	}
}
MOTION
Frames: 6
Frame Time: 0.033333
1.888503 83.300583 -130.427231 -7.605018 -8.435201 -4.863915 9.734739 -0.590257 6.743019 0.800404 -0.136633 -1.798566 0.800619 -0.177625 -1.806964 3.188367 -0.358977 2.914883 5.326282 2.708635 -2.961636 0.000001 -0.000000 0.000000 1.576679 -2.712421 -7.228662 24.928049 -37.445573 -48.299143 -0.000011 -22.294518 -0.000009 3.653363 10.407052 1.519210 -2.402119 4.870107 15.098791 4.869958 19.561966 1.589532 -0.579478 1.574995 2.538722 -0.000002 0.000001 -0.000000 0.002478 0.185249 -1.535298 0.109009 1.222748 -10.187122 0.130134 1.335016 -11.134400 0.000002 0.000000 -0.000000 0.020450 0.531337 -4.407337 0.111724 1.237788 -10.313973 0.132483 1.346928 -11.234965 0.000002 0.000000 -0.000000 0.068082 0.967748 -8.046482 0.115537 1.258655 -10.489678 0.133238 1.350719 -11.267107 -0.000001 0.000000 -0.000000 0.887242 5.304012 -10.551923 0.109847 -2.791279 -11.037586 0.134231 1.355625 -11.308564 0.000002 -0.000000 0.000002 8.144083 21.785841 0.931373 16.376946 13.727546 58.741717 0.000001 50.355696 -0.000009 2.763248 7.377790 -0.674738 -1.952972 -12.901473 -7.573665 5.585053 -19.316309 -0.939520 -1.273754 0.137303 -2.094881 0.000001 0.000002 -0.000002 0.438200 -2.433707 20.410998 0.171104 -1.536029 12.711147 0.021485 -0.547346 4.496103 -0.000003 0.000000 0.000000 0.556580 -2.730515 23.038438 0.134082 -1.361670 11.247537 0.009352 -0.361298 2.965952 0.000003 0.000000 0.000000 0.732696 -3.111762 26.493102 0.088130 -1.105786 9.113204 0.001270 -0.132977 1.091208 -0.000002 -0.000000 -0.000001 0.901605 -3.429271 29.453217 0.051750 -0.848384 6.979247 0.000055 0.027637 -0.226753 -0.000001 0.000001 0.000001 -38.285949 -2.190026 0.319562 63.889788 -4.540756 2.025633 3.004875 13.048378 14.137592 -3.280872 0.414386 -7.190289 0.000001 0.000000 0.000001 -24.454524 11.007498 17.513280 41.586221 8.446319 1.098198 -8.629513 9.908449 -9.386914 -0.000178 0.000001 -0.000000 0.000000 -0.000002 -0.000000 
1.824663 84.894005 -126.831367 -7.505831 -13.332335 -3.807498 9.869973 1.336371 5.147031 0.610668 0.150127 -2.081344 0.619599 0.105132 -2.093662 3.311291 -0.090948 2.823105 5.010590 3.952262 -3.111913 -0.000001 0.000000 -0.000000 1.550062 -2.607183 -7.098574 24.911331 -37.278428 -49.025165 -0.000002 -19.880502 0.000001 3.612403 9.637376 0.787756 -2.402111 4.870105 15.098789 4.869959 19.561969 1.589532 -0.579471 1.574996 2.538723 -0.000001 -0.000002 0.000000 0.005819 0.283428 -2.349265 0.118177 1.272754 -10.608769 0.135086 1.359954 -11.345231 0.000002 0.000001 -0.000000 0.027640 0.617556 -5.124364 0.118992 1.277095 -10.645348 0.136226 1.365590 -11.392837 0.000001 0.000001 -0.000001 0.078633 1.039707 -8.649051 0.120090 1.283017 -10.695348 0.135488 1.361972 -11.362212 0.000002 -0.000000 0.000000 0.935289 5.357891 -11.069168 0.112112 -2.779725 -11.135020 0.135373 1.361398 -11.357353 0.000002 -0.000001 0.000002 8.556485 22.655235 0.844296 15.362835 13.190822 59.021557 -0.000019 50.100090 0.000023 3.354612 7.573524 -0.598440 -1.952973 -12.901475 -7.573668 5.585052 -19.316309 -0.939525 -1.273754 0.137306 -2.094880 0.000004 -0.000001 0.000002 0.440493 -2.439861 20.465019 0.175479 -1.555362 12.873996 0.022287 -0.557242 4.577458 0.000001 0.000001 -0.000000 0.561256 -2.741473 23.136405 0.137638 -1.379348 11.395582 0.009827 -0.370365 3.040534 0.000003 -0.000001 -0.000001 0.741042 -3.128427 26.646511 0.090648 -1.121408 9.243039 0.001421 -0.140791 1.155390 0.000004 -0.000001 -0.000001 0.913556 -3.450314 29.652344 0.053425 -0.862043 7.092088 0.000034 0.020773 -0.170359 0.000000 0.000001 0.000003 -36.789561 -1.437111 1.336277 52.208320 -6.093468 -2.984504 -7.035831 19.129712 25.932698 -0.000005 -0.000003 -0.000008 -0.000000 0.000000 -0.000001 -20.174847 9.941444 14.336125 40.113435 8.920325 3.223454 -8.556128 15.995130 -15.083421 -2.753830 -0.000016 0.000001 0.000000 -0.000000 0.000000 
1.932918 87.126701 -124.039734 -7.427198 -17.505505 -2.424103 9.956948 3.025011 3.065905 0.435276 0.428718 -2.340515 0.452945 0.380395 -2.356681 3.448466 0.170732 2.731676 4.698145 5.162464 -3.242815 -0.000000 -0.000001 0.000000 1.522766 -2.494446 -6.983532 24.873085 -37.209074 -49.743472 -0.000004 -17.341478 0.000011 3.437096 8.721996 0.142308 -2.402115 4.870105 15.098791 4.869957 19.561964 1.589533 -0.579472 1.574997 2.538724 -0.000002 -0.000003 -0.000003 0.011224 0.393809 -3.264992 0.133624 1.352615 -11.283233 0.143207 1.399819 -11.682484 0.000005 0.000001 0.000001 0.037948 0.723383 -6.005468 0.132934 1.349116 -11.253527 0.143408 1.400764 -11.690524 -0.000002 0.000000 0.000000 0.094709 1.140452 -9.494506 0.131857 1.343687 -11.207809 0.141473 1.391388 -11.611137 0.000001 -0.000002 0.000001 1.013144 5.443106 -11.896245 0.122225 -2.729408 -11.559844 0.140491 1.386536 -11.570136 0.000002 0.000001 0.000000 8.953692 23.487229 0.756538 14.397042 12.710613 59.304067 -0.000001 49.833740 0.000000 3.793928 7.743156 -0.476487 -1.952971 -12.901475 -7.573666 5.585053 -19.316309 -0.939523 -1.273751 0.137305 -2.094882 0.000002 -0.000001 -0.000002 0.438660 -2.434943 20.421950 0.177305 -1.563294 12.940663 0.022597 -0.561286 4.610802 -0.000001 -0.000000 -0.000000 0.561022 -2.740964 23.131653 0.140110 -1.391601 11.498290 0.010178 -0.376814 3.093602 0.000003 0.000002 0.000000 0.743382 -3.133088 26.689362 0.093601 -1.139343 9.392144 0.001617 -0.150061 1.231535 -0.000004 -0.000002 -0.000000 0.918465 -3.458910 29.733903 0.056260 -0.884525 7.278232 0.000012 0.009415 -0.077320 0.000004 -0.000001 -0.000001 -32.497548 -0.086477 4.037556 37.762705 -2.165491 -8.891517 -10.708613 20.665065 27.781364 0.000002 -0.000003 -0.000003 -0.000001 -0.000001 0.000000 -14.980907 5.759234 10.019123 37.686061 9.130920 3.799026 -8.051199 19.803237 -19.054915 -4.381961 0.000007 -0.000004 -0.000000 0.000001 -0.000000 
2.337514 89.686989 -121.956253 -7.190104 -20.502735 -0.667119 9.916761 4.412906 0.773093 0.287822 0.676177 -2.547242 0.313468 0.626203 -2.566245 3.613867 0.406272 2.668907 4.426730 6.271325 -3.332826 -0.000000 0.000000 -0.000000 1.493788 -2.369217 -6.885217 24.799199 -37.273719 -50.448897 -0.000014 -14.718713 -0.000010 2.971025 7.616265 -0.170665 -2.402119 4.870107 15.098789 4.869961 19.561969 1.589532 -0.579475 1.574996 2.538724 -0.000002 -0.000003 0.000000 0.017105 0.485907 -4.029851 0.152044 1.441846 -12.038546 0.152582 1.444386 -12.060149 0.000002 -0.000000 0.000001 0.048836 0.820242 -6.813227 0.150872 1.436361 -11.992075 0.152519 1.444007 -12.056828 -0.000000 -0.000001 0.000001 0.112762 1.243547 -10.362280 0.148993 1.427431 -11.916305 0.150071 1.432658 -11.960810 0.000000 0.000001 -0.000001 1.101878 5.537288 -12.823648 0.138999 -2.649849 -12.232725 0.148771 1.426338 -11.907170 0.000003 0.000002 -0.000001 9.294509 24.198196 0.677086 13.579056 12.431275 59.651635 0.000013 49.553702 -0.000043 3.941930 7.850116 -0.234628 -1.952969 -12.901475 -7.573663 5.585054 -19.316311 -0.939521 -1.273752 0.137303 -2.094879 -0.000004 0.000000 0.000002 0.440888 -2.440968 20.474607 0.176892 -1.561470 12.925363 0.022532 -0.560347 4.603159 0.000002 0.000003 0.000001 0.562502 -2.744364 23.162164 0.140528 -1.393644 11.515364 0.010232 -0.377830 3.101853 -0.000000 0.000000 -0.000000 0.743557 -3.133455 26.692620 0.094725 -1.146103 9.448523 0.001687 -0.153603 1.260559 -0.000003 -0.000002 -0.000001 0.917338 -3.456950 29.715199 0.057637 -0.895245 7.366881 -0.000001 0.004020 -0.032989 0.000002 0.000000 -0.000000 -26.909690 5.294977 4.689777 25.166899 7.541094 -10.396386 -11.015574 23.423579 22.063480 -0.000004 0.000001 -0.000003 0.000000 0.000001 0.000000 -10.363102 -1.621908 6.091357 35.169529 9.294408 2.091225 -7.687133 20.738575 -20.120653 -7.351571 -0.000001 0.000000 0.000000 0.000000 0.000000 
2.955647 91.497025 -119.686012 -6.478825 -22.661371 0.459586 9.489861 5.584346 -0.694679 0.195812 0.861853 -2.654826 0.227678 0.813301 -2.674567 3.827088 0.588050 2.668463 4.244622 7.173653 -3.346805 0.000000 0.000000 -0.000000 1.463024 -2.228054 -6.812759 24.665457 -37.540212 -51.112983 0.000003 -12.089779 0.000006 2.023851 6.256587 0.121207 -2.402117 4.870104 15.098789 4.869957 19.561966 1.589538 -0.579473 1.574994 2.538722 0.000002 0.000002 0.000001 0.020785 0.535776 -4.444323 0.168296 1.516009 -12.668005 0.160623 1.481498 -12.374891 0.000001 0.000000 -0.000001 0.056539 0.882517 -7.333285 0.168184 1.515434 -12.663433 0.161106 1.483709 -12.393718 0.000001 0.000000 0.000002 0.127442 1.321287 -11.017884 0.167460 1.512308 -12.636768 0.159215 1.475100 -12.320539 0.000001 -0.000000 -0.000000 1.177079 5.614779 -13.597612 0.158842 -2.561284 -12.983688 0.158263 1.470690 -12.283370 -0.000000 0.000001 -0.000000 9.518944 24.668968 0.617911 13.075727 12.545294 60.124427 0.000018 49.266831 -0.000017 3.608729 7.844715 0.187443 -1.952972 -12.901474 -7.573664 5.585050 -19.316311 -0.939525 -1.273752 0.137304 -2.094877 -0.000001 0.000000 0.000001 0.454013 -2.475742 20.780335 0.178551 -1.568672 12.986077 0.022828 -0.564047 4.633476 -0.000004 0.000000 0.000001 0.573695 -2.770385 23.395199 0.141686 -1.399271 11.562498 0.010367 -0.380268 3.121878 0.000001 0.000001 0.000001 0.751495 -3.149130 26.837229 0.095210 -1.149038 9.473076 0.001716 -0.154830 1.270569 0.000004 -0.000001 -0.000001 0.921829 -3.464775 29.789453 0.057731 -0.895890 7.372238 0.000001 0.003692 -0.030316 0.000003 -0.000002 -0.000001 -21.134926 14.854225 2.654596 14.189975 9.960511 -13.551380 -18.986802 28.906300 31.508755 3.435996 0.000016 0.000002 -0.000000 -0.000003 -0.000001 -7.199809 -9.599266 3.222705 33.283399 8.094131 -0.105050 -8.819077 20.467661 -17.772347 -9.880176 0.000001 0.000003 -0.000000 0.000000 -0.000000 
3.144289 91.553024 -116.355988 -5.347479 -24.169372 -0.003504 8.396082 6.557137 -0.466073 0.192849 0.963295 -2.621057 0.228352 0.920296 -2.638782 4.094581 0.693267 2.754852 4.193828 7.776054 -3.251655 0.000000 -0.000000 -0.000000 1.433141 -2.080568 -6.775772 24.467799 -38.035660 -51.667550 0.000000 -9.677425 0.000005 0.533568 4.689870 1.100986 -2.402121 4.870109 15.098791 4.869961 19.561966 1.589535 -0.579473 1.574998 2.538724 0.000000 0.000002 0.000001 0.020685 0.534543 -4.433878 0.177418 1.556046 -13.008467 0.165047 1.501532 -12.545107 -0.000001 -0.000000 0.000001 0.058421 0.896891 -7.453271 0.179637 1.565651 -13.090382 0.166815 1.509395 -12.611864 -0.000002 0.000001 -0.000002 0.134053 1.354794 -11.300872 0.181957 1.575560 -13.174895 0.166308 1.507175 -12.593080 0.000001 -0.000001 -0.000000 1.218234 5.656314 -14.016453 0.176166 -2.488005 -13.606930 0.166376 1.507467 -12.595579 -0.000003 0.000002 -0.000001 9.576070 24.800277 0.589933 13.067011 13.189520 60.702944 0.000020 49.019042 -0.000022 2.736359 7.699219 0.728901 -1.952973 -12.901476 -7.573666 5.585050 -19.316308 -0.939523 -1.273751 0.137305 -2.094880 0.000001 0.000001 0.000001 0.476263 -2.533568 21.289614 0.185901 -1.600174 13.251792 0.024145 -0.580163 4.766244 -0.000004 -0.000001 -0.000002 0.595625 -2.820465 23.844802 0.146953 -1.424830 11.776918 0.011061 -0.392716 3.224213 0.000003 -0.000001 -0.000002 0.772448 -3.190169 27.216407 0.098101 -1.166145 9.615329 0.001893 -0.162920 1.337010 -0.000002 0.000001 0.000001 0.941555 -3.498954 30.114383 0.058969 -0.905545 7.452161 0.000006 -0.001170 0.009623 0.000002 -0.000004 -0.000001 -20.807236 24.901497 1.952401 14.529305 12.049156 -12.742115 -26.402829 25.553642 35.726220 8.008155 0.000005 -0.000003 0.000000 0.000001 -0.000001 -4.620634 -15.486622 1.770824 33.025276 3.780712 -1.315925 -12.593544 21.392964 -12.916714 -8.669259 0.000010 -0.000001 -0.000000 -0.000001 -0.000000 
